<svg width="250.05" height="216.8" xmlns:xlink="http://www.w3.org/1999/xlink" xmlns="http://www.w3.org/2000/svg"><defs><linearGradient id="prefix__a" x1="190.19" y1="354.83" x2="476.13" y2="189.74" gradientUnits="userSpaceOnUse"><stop offset="0" stop-color="#fa0a64"/><stop offset=".11" stop-color="#fa135f"/><stop offset=".28" stop-color="#fb2b52"/><stop offset=".49" stop-color="#fc533e"/><stop offset=".75" stop-color="#fd8a21"/><stop offset="1" stop-color="#ffc800"/></linearGradient><linearGradient id="prefix__b" x1="-8157.01" y1="-2422.32" x2="-8157.01" y2="-2206.43" gradientTransform="rotate(180 -3951.245 -1032.35)" gradientUnits="userSpaceOnUse"><stop offset="0" stop-color="#ffc800"/><stop offset=".11" stop-color="#ffbf05"/><stop offset=".28" stop-color="#fea712"/><stop offset=".49" stop-color="#fd7f26"/><stop offset=".75" stop-color="#fc4843"/><stop offset="1" stop-color="#fa0a64"/></linearGradient><linearGradient id="prefix__e" x1="-6554.25" y1="-2124.13" x2="-6268.11" y2="-2289.33" gradientTransform="rotate(180 -3184.655 -1060.315)" xlink:href="#prefix__a"/><linearGradient id="prefix__f" x1="-1412.7" y1="56.71" x2="-1412.7" y2="272.6" gradientTransform="translate(1533.18 -55.93)" xlink:href="#prefix__b"/><linearGradient xlink:href="#prefix__a" id="prefix__c" gradientUnits="userSpaceOnUse" x1="190.19" y1="354.83" x2="476.13" y2="189.74" gradientTransform="translate(-125 -141.6)"/><linearGradient xlink:href="#prefix__b" id="prefix__d" gradientUnits="userSpaceOnUse" gradientTransform="rotate(180 -4013.745 -1103.15)" x1="-8157.01" y1="-2422.32" x2="-8157.01" y2="-2206.43"/></defs><path d="M205.47 64.19C201 70.86 118 215.77 118 215.77l52.8 1c11.62 0 19.72-5 24.41-13.13l54.84-95S228.94 71.4 224.3 64.19c-4.64-7.21-14.14-7.02-18.83 0z" fill="url(#prefix__c)"/><path d="M170.75 216.8c11.62 0 19.72-5 24.41-13.13l1.46-2.53c-3.62 6-9.54 13-17.66.72-5.92-9-54-93.47-54-93.47L62.41 216.8z" fill="url(#prefix__d)"/><path d="M44.53 152.61C49 145.92 132.12.92 132.12.92L79.25 0C67.63 0 59.53 5 54.84 13.13L0 108.1s21.06 37.33 25.7 44.51c4.64 7.18 14.14 7.02 18.83 0z" fill="url(#prefix__e)"/><path d="M79.25 0C67.63 0 59.53 5 54.84 13.13l-1.46 2.53c3.62-6 9.54-13 17.66-.72 5.92 9 54 93.47 54 93.47L187.63.01z" fill="url(#prefix__f)"/></svg>