<svg xmlns="http://www.w3.org/2000/svg" height="16" width="16" viewBox="0 0 16 16">
  <g fill="currentColor">
    <rect data-color="color-2" x="5" y="5" width="6" height="6" rx="1" fill="currentColor"></rect>
    <path d="M2,2H6V0H2A2,2,0,0,0,0,2V6H2Z" fill="currentColor"></path>
    <path d="M14,0H10V2h4V6h2V2A2,2,0,0,0,14,0Z" fill="currentColor"></path>
    <path d="M14,14H10v2h4a2,2,0,0,0,2-2V10H14Z" fill="currentColor"></path>
    <path d="M2,10H0v4a2,2,0,0,0,2,2H6V14H2Z" fill="currentColor"></path>
  </g>
</svg>
